<svg width="15" height="14" viewBox="0 0 15 14" fill="none" xmlns="http://www.w3.org/2000/svg">
<path d="M6.42623 1.59367C6.73383 0.689974 8.01195 0.689977 8.31955 1.59367L9.30307 4.48313C9.44102 4.8884 9.82163 5.16091 10.2497 5.16091H13.3299C14.3099 5.16091 14.7051 6.42416 13.8998 6.98263L11.4891 8.65456C11.1222 8.90901 10.9685 9.37584 11.1123 9.79851L12.0518 12.5586C12.3626 13.4718 11.3279 14.2523 10.5353 13.7025L7.94278 11.9046C7.60004 11.6668 7.14574 11.6668 6.803 11.9046L4.21052 13.7025C3.41786 14.2523 2.38313 13.4718 2.69397 12.5586L3.63345 9.79851C3.77732 9.37584 3.62356 8.90901 3.25668 8.65456L0.845942 6.98263C0.040704 6.42416 0.435891 5.16091 1.41583 5.16091H4.49604C4.92415 5.16091 5.30476 4.8884 5.44271 4.48313L6.42623 1.59367Z" fill="#FFA858"/>
</svg>
